<svg width="99" height="99" viewBox="0 0 99 99" fill="none" xmlns="http://www.w3.org/2000/svg">
<path fill-rule="evenodd" clip-rule="evenodd" d="M43 92C70.6142 92 93 69.8381 93 42.5C93 31.7375 89.5305 21.7772 83.6384 13.6555C93.1022 22.6716 99 35.397 99 49.5C99 76.8381 76.8381 99 49.5 99C33.8404 99 19.8792 91.7284 10.8087 80.3775C19.5067 87.6301 30.7379 92 43 92Z" fill="#A4A4A4"/>
<path d="M30 32.7857C30 47.0055 30.0843 48.8863 30.8851 51.9659C32.1073 56.7609 35.3737 59.7992 40.4312 60.8739C42.9179 61.3906 47.28 61.3493 49.4716 60.7706C52.6326 59.9439 55.5407 58.187 57.1212 56.1616C58.6174 54.2187 58.4699 54.0947 58.3645 57.443C58.2591 60.7913 57.9852 62.0934 56.8472 64.4289C55.92 66.3097 54.1709 68.1078 52.4219 68.9759C50.9257 69.7199 48.9448 70.2573 47.7225 70.2573C47.2379 70.2573 46.8585 70.3193 46.8585 70.3813C46.8585 70.4847 48.9869 75.321 50.146 77.8839L50.6517 79L51.6632 78.8553C54.466 78.504 58.6174 76.7885 61.0829 75.011C65.3397 71.9315 68.3742 66.7024 69.1961 61.0393C69.3436 59.9439 69.449 52.7513 69.47 39.1929L69.5122 19H63.7803H58.0695L57.9641 31.5456C57.9009 42.4172 57.8377 44.3186 57.5216 45.6207C56.4468 50.1264 54.3395 52.0072 49.9141 52.3999C48.2704 52.5446 46.3528 52.2346 45.1727 51.6559C43.5079 50.8085 42.4121 48.969 41.9063 46.1788C41.6535 44.6907 41.5902 42.1691 41.5902 31.6903V19H35.7951H30V32.7857Z" fill="black"/>
</svg>
